# xmcd CD database file
#
# Track frame offsets:
#	150
#	20962
#	41451
#	55880
#	72476
#	82928
#	104122
#	116116
#	141417
#	165489
#	188826
#	207809
#	227799
#	244312
#	257318
#	273436
#	280028
#	293162
#	307277
#	310984
#	336991
#	346357
#
# Disc length: 4751 seconds
#
# Revision: 3
# Processed by: cddbd v1.5.2PL0 Copyright (c) Steve Scherf et al.
# Submitted via: CDex 1.50
#
DISCID=5a128d16
DTITLE=Maurer, Jörg - 08 - Schwindelfrei ist nur der Tod CD04
DYEAR=2016
DGENRE=Hörbch
TTITLE0=401
TTITLE1=402
TTITLE2=403
TTITLE3=404
TTITLE4=405
TTITLE5=406
TTITLE6=407
TTITLE7=408
TTITLE8=409
TTITLE9=410
TTITLE10=411
TTITLE11=412
TTITLE12=413
TTITLE13=414
TTITLE14=415
TTITLE15=416
TTITLE16=417
TTITLE17=418
TTITLE18=419
TTITLE19=420
TTITLE20=421
TTITLE21=422
EXTD=YEAR: 2016
EXTT0=
EXTT1=
EXTT2=
EXTT3=
EXTT4=
EXTT5=
EXTT6=
EXTT7=
EXTT8=
EXTT9=
EXTT10=
EXTT11=
EXTT12=
EXTT13=
EXTT14=
EXTT15=
EXTT16=
EXTT17=
EXTT18=
EXTT19=
EXTT20=
EXTT21=
PLAYORDER=
